<svg xmlns="http://www.w3.org/2000/svg" width="30" height="30" viewBox="0 0 30 30">
    <defs>
        <style>
            .cls-1{fill:none}.cls-2{fill:#00a8e1;fill-rule:evenodd}
        </style>
    </defs>
    <g id="ic_business_center" transform="translate(-4198 -3846)">
        <path id="Base" d="M0 0h30v30H0z" class="cls-1" transform="translate(4198 3846)"/>
        <path id="Icon" d="M213-251v-1h-6.99l-.01 4a1.993 1.993 0 0 0 2 2h14a1.993 1.993 0 0 0 2-2v-4h-7v1zm10-9h-4.01v-2l-2-2h-4l-2 2v2H207a2.006 2.006 0 0 0-2 2v3a1.993 1.993 0 0 0 2 2h6v-2h4v2h6a2.006 2.006 0 0 0 2-2v-3a2.006 2.006 0 0 0-2-2zm-6 0h-4v-2h4v2z" class="cls-2" transform="translate(3998 4116)"/>
    </g>
</svg>
