<svg xmlns="http://www.w3.org/2000/svg" id="calendar" width="17.892" height="17.892" viewBox="0 0 17.892 17.892">
    <defs>
        <style>
            .cls-1{fill:#707070}
        </style>
    </defs>
    <g id="Group_799" data-name="Group 799">
        <g id="Group_798" data-name="Group 798">
            <path id="Path_516" d="M15.795 1.4h-.839V0h-1.4v1.4H4.333V0h-1.4v1.4H2.1A2.1 2.1 0 0 0 0 3.494v12.3a2.1 2.1 0 0 0 2.1 2.1h13.7a2.1 2.1 0 0 0 2.1-2.1v-12.3A2.1 2.1 0 0 0 15.795 1.4zm.7 14.4a.7.7 0 0 1-.7.7H2.1a.7.7 0 0 1-.7-.7V6.57h15.1zm0-10.623H1.4V3.494a.7.7 0 0 1 .7-.7h.839v1.4h1.4V2.8h9.225v1.4h1.4V2.8h.839a.7.7 0 0 1 .7.7z" class="cls-1" data-name="Path 516"/>
        </g>
    </g>
    <g id="Group_801" data-name="Group 801" transform="translate(2.748 8.171)">
        <g id="Group_800" data-name="Group 800">
            <path id="Rectangle_1557" d="M0 0h1v1H0z" class="cls-1" data-name="Rectangle 1557" transform="translate(.197 -.225)"/>
        </g>
    </g>
    <g id="Group_803" data-name="Group 803" transform="translate(5.46 8.171)">
        <g id="Group_802" data-name="Group 802">
            <path id="Rectangle_1558" d="M0 0h1v1H0z" class="cls-1" data-name="Rectangle 1558" transform="translate(.486 -.225)"/>
        </g>
    </g>
    <g id="Group_805" data-name="Group 805" transform="translate(8.171 8.171)">
        <g id="Group_804" data-name="Group 804">
            <path id="Rectangle_1559" d="M0 0h2v1H0z" class="cls-1" data-name="Rectangle 1559" transform="translate(-.225 -.225)"/>
        </g>
    </g>
    <g id="Group_807" data-name="Group 807" transform="translate(10.882 8.171)">
        <g id="Group_806" data-name="Group 806">
            <path id="Rectangle_1560" d="M0 0h1v1H0z" class="cls-1" data-name="Rectangle 1560" transform="translate(.063 -.225)"/>
        </g>
    </g>
    <g id="Group_809" data-name="Group 809" transform="translate(13.981 8.171)">
        <g id="Group_808" data-name="Group 808">
            <path id="Rectangle_1561" d="M0 0h1v1H0z" class="cls-1" data-name="Rectangle 1561" transform="translate(-.035 -.225)"/>
        </g>
    </g>
    <g id="Group_811" data-name="Group 811" transform="translate(2.748 10.882)">
        <g id="Group_810" data-name="Group 810">
            <path id="Rectangle_1562" d="M0 0h1v1H0z" class="cls-1" data-name="Rectangle 1562" transform="translate(.197 .063)"/>
        </g>
    </g>
    <g id="Group_813" data-name="Group 813" transform="translate(5.46 10.882)">
        <g id="Group_812" data-name="Group 812">
            <path id="Rectangle_1563" d="M0 0h1v1H0z" class="cls-1" data-name="Rectangle 1563" transform="translate(.486 .063)"/>
        </g>
    </g>
    <g id="Group_815" data-name="Group 815" transform="translate(8.171 10.882)">
        <g id="Group_814" data-name="Group 814">
            <path id="Rectangle_1564" d="M0 0h2v1H0z" class="cls-1" data-name="Rectangle 1564" transform="translate(-.225 .063)"/>
        </g>
    </g>
    <g id="Group_817" data-name="Group 817" transform="translate(10.882 10.882)">
        <g id="Group_816" data-name="Group 816">
            <path id="Rectangle_1565" d="M0 0h1v1H0z" class="cls-1" data-name="Rectangle 1565" transform="translate(.063 .063)"/>
        </g>
    </g>
    <g id="Group_819" data-name="Group 819" transform="translate(2.748 13.594)">
        <g id="Group_818" data-name="Group 818">
            <path id="Rectangle_1566" d="M0 0h1v1H0z" class="cls-1" data-name="Rectangle 1566" transform="translate(.197 .352)"/>
        </g>
    </g>
    <g id="Group_821" data-name="Group 821" transform="translate(5.46 13.594)">
        <g id="Group_820" data-name="Group 820">
            <path id="Rectangle_1567" d="M0 0h1v1H0z" class="cls-1" data-name="Rectangle 1567" transform="translate(.486 .352)"/>
        </g>
    </g>
    <g id="Group_823" data-name="Group 823" transform="translate(8.171 13.594)">
        <g id="Group_822" data-name="Group 822">
            <path id="Rectangle_1568" d="M0 0h2v1H0z" class="cls-1" data-name="Rectangle 1568" transform="translate(-.225 .352)"/>
        </g>
    </g>
    <g id="Group_825" data-name="Group 825" transform="translate(10.882 13.594)">
        <g id="Group_824" data-name="Group 824">
            <path id="Rectangle_1569" d="M0 0h1v1H0z" class="cls-1" data-name="Rectangle 1569" transform="translate(.063 .352)"/>
        </g>
    </g>
    <g id="Group_827" data-name="Group 827" transform="translate(13.981 10.882)">
        <g id="Group_826" data-name="Group 826">
            <path id="Rectangle_1570" d="M0 0h1v1H0z" class="cls-1" data-name="Rectangle 1570" transform="translate(-.035 .063)"/>
        </g>
    </g>
</svg>
