<svg xmlns="http://www.w3.org/2000/svg" width="20" height="20" viewBox="0 0 20 20">
    <defs>
        <style>
            .cls-1{fill:#00a8e1;fill-rule:evenodd}
        </style>
    </defs>
    <path id="Icon" d="M135-345a10 10 0 0 0-10 10 10 10 0 0 0 10 10 10 10 0 0 0 10-10 10 10 0 0 0-10-10zm0 3a3 3 0 0 1 3 3 3 3 0 0 1-3 3 3 3 0 0 1-3-3 3 3 0 0 1 3-3zm0 14.2a7.2 7.2 0 0 1-6-3.22c.03-1.99 4-3.08 6-3.08s5.97 1.09 6 3.08a7.2 7.2 0 0 1-6 3.22z" class="cls-1" transform="translate(-125 345)"/>
</svg>
