<svg xmlns="http://www.w3.org/2000/svg" width="548.667" height="510.188" viewBox="0 0 548.667 510.188">
    <defs>
        <style>
            .cls-1{opacity:.27}.cls-2{fill:#c7cac7}
        </style>
    </defs>
    <g id="fingerprint" class="cls-1" transform="rotate(45 175.72 270.072)">
        <path id="Path_500" d="M33.971 26.3a7.778 7.778 0 0 0-5.3 9.622c.21.722 20.945 74.483 15.237 238.314a7.746 7.746 0 0 0 7.486 8.03c.093.008.186.008.28.008a7.762 7.762 0 0 0 7.75-7.494C65.221 108.478 44.47 34.662 43.593 31.6a7.78 7.78 0 0 0-9.622-5.3z" class="cls-2" data-name="Path 500" transform="translate(180.197 175.912)"/>
        <path id="Path_501" d="M330.743 127.975A209.654 209.654 0 0 0 56.9 16.177a250.825 250.825 0 0 0-40 21 7.77 7.77 0 0 0 8.465 13.031 235.045 235.045 0 0 1 37.514-19.696A194.106 194.106 0 0 1 316.43 134.033c12.659 29.93 19.5 85.037 22.451 115.231a7.759 7.759 0 0 0 7.719 7 9 9 0 0 0 .769-.039 7.765 7.765 0 0 0 6.966-8.488c-3.703-37.937-10.801-89.529-23.592-119.762z" class="cls-2" data-name="Path 501" transform="translate(78.7)"/>
        <path id="Path_502" d="M72.579 21.291a7.765 7.765 0 1 0-10.9-11.059C19.91 51.376-21.692 127.895 17.277 258.72a7.752 7.752 0 0 0 7.44 5.553 7.774 7.774 0 0 0 7.44-9.979C3.058 156.582 17.029 76.018 72.579 21.291z" class="cls-2" data-name="Path 502" transform="translate(0 54.124)"/>
        <path id="Path_503" d="M177.462 6.121a161.163 161.163 0 0 0-68.752 12.473A163.081 163.081 0 0 0 14.532 213.4a197.825 197.825 0 0 1 5.778 24.766c2.78 19.019 2.928 54.02 2.928 109.539a7.766 7.766 0 0 0 15.532 0c0-57.919-.148-91.67-3.091-111.8a208.574 208.574 0 0 0-6.205-26.746A147.6 147.6 0 0 1 176.911 21.63c55.224 1.988 117.818 50.665 136.7 106.308 16.34 48.141 16.479 130.158 14.452 204.02a7.772 7.772 0 0 0 7.556 7.976 7.944 7.944 0 0 0 7.976-7.556c2.058-75.244 1.848-158.977-15.276-209.44C307.216 60.755 239.544 8.343 177.462 6.121z" class="cls-2" data-name="Path 503" transform="translate(44.836 40.583)"/>
        <path id="Path_504" d="M71.607 28.646a7.766 7.766 0 0 0-8.923-12.713C22.689 44.015 5.309 97.966 19.466 150.246c.163.567 15.928 57.95 15.928 147.585a7.766 7.766 0 0 0 15.532 0c0-91.739-15.827-149.355-16.487-151.708-12.433-45.929 2.508-93.138 37.168-117.477z" class="cls-2" data-name="Path 504" transform="translate(87.05 98.226)"/>
        <path id="Path_505" d="M56.444 12a115.88 115.88 0 0 0-24.991 2.71A7.766 7.766 0 1 0 34.8 29.877a100.952 100.952 0 0 1 114.61 59.278c18.871 44.577 20.106 116.125 15.749 240.97a7.751 7.751 0 0 0 7.486 8.03c.093.008.186.008.28.008a7.762 7.762 0 0 0 7.75-7.494c4.535-129.87 3.153-200.036-16.969-247.571A116.24 116.24 0 0 0 56.444 12z" class="cls-2" data-name="Path 505" transform="translate(159.89 81.192)"/>
        <path id="Path_506" d="M52.808 54.819A7.759 7.759 0 0 0 45.1 47h-.054a7.767 7.767 0 0 0-7.766 7.712c-.039 5.84.155 14.367.365 23.577.3 13.4.645 28.579.311 38.341a7.745 7.745 0 0 0 7.494 8.022c.093.008.179.008.272.008a7.763 7.763 0 0 0 7.75-7.5c.357-10.2.008-25.62-.3-39.226-.216-9.027-.403-17.391-.364-23.115z" class="cls-2" data-name="Path 506" transform="translate(240.487 317.994)"/>
        <path id="Path_507" d="M83.029 19A61.829 61.829 0 0 0 59.1 23.8c-30.225 12.612-44.911 46.712-34.17 79.322 5.856 17.776 10.8 110.836 10.8 203.212a7.766 7.766 0 0 0 15.532 0c0-83.15-4.427-186.344-11.571-208.066-8.181-24.829 2.746-50.681 25.399-60.133a46.562 46.562 0 0 1 60.877 24.9c14.5 34.318 18.809 96.446 19.865 142.529a7.773 7.773 0 0 0 7.766 7.587h.179a7.776 7.776 0 0 0 7.587-7.945c-1.095-47.419-5.638-111.636-21.123-148.276A62 62 0 0 0 83.029 19z" class="cls-2" data-name="Path 507" transform="translate(133.305 128.553)"/>
    </g>
</svg>
