<svg xmlns="http://www.w3.org/2000/svg" id="ic_notifications" width="30" height="30" viewBox="0 0 30 30">
    <defs>
        <style>
            .cls-1{fill:none;opacity:.3}.cls-2{fill:#00a8e1;fill-rule:evenodd}
        </style>
    </defs>
    <path id="Base" d="M0 0h30v30H0z" class="cls-1"/>
    <path id="Icon" d="M335-45.5a1.752 1.752 0 0 0 .4-.04 2.029 2.029 0 0 0 1.44-1.18 2.008 2.008 0 0 0 .15-.78h-4a2.015 2.015 0 0 0 2.01 2zm6-11c0-3.07-1.64-5.64-4.5-6.32v-.68A1.5 1.5 0 0 0 335-65a1.5 1.5 0 0 0-1.5 1.5v.68c-2.87.68-4.5 3.24-4.5 6.32v5l-2 2v1h16v-1l-2-2v-5z" class="cls-2" transform="translate(-320 70)"/>
</svg>
