<svg xmlns="http://www.w3.org/2000/svg" width="13.136" height="13.136" viewBox="0 0 13.136 13.136">
    <defs>
        <style>
            .cls-1{fill:#e94c39}
        </style>
    </defs>
    <path id="XMLID_90_" d="M.2 10.974l1.959 1.959a.692.692 0 0 0 .979 0l3.43-3.427L10 12.933a.692.692 0 0 0 .979 0l1.959-1.959a.692.692 0 0 0 0-.979L9.506 6.568l3.427-3.428a.692.692 0 0 0 0-.979L10.975.2A.692.692 0 0 0 10 .2L6.568 3.63 3.14.2a.692.692 0 0 0-.979 0L.2 2.161a.692.692 0 0 0 0 .979l3.43 3.428L.2 10a.692.692 0 0 0 0 .974z" class="cls-1"/>
</svg>
