<svg xmlns="http://www.w3.org/2000/svg" width="25" height="25" viewBox="0 0 25 25">
    <defs>
        <style>
            .cls-1{fill:none}.cls-2{fill:#00A9E1}
        </style>
    </defs>
    <g id="Group_1311" data-name="Group 1311" transform="translate(-310 -307)">
        <path id="Rectangle_1777" d="M0 0h25v25H0z" class="cls-1" data-name="Rectangle 1777" transform="translate(310 307)"/>
        <path id="ic_remove_red_eye_24px" d="M9 4.5a8.6 8.6 0 0 0-8 5.455 8.594 8.594 0 0 0 16 0A8.6 8.6 0 0 0 9 4.5zm0 9.091a3.636 3.636 0 1 1 3.636-3.636A3.638 3.638 0 0 1 9 13.591zm0-5.818a2.182 2.182 0 1 0 2.182 2.182A2.179 2.179 0 0 0 9 7.773z" class="cls-2" transform="translate(314 309.5)"/>
    </g>
</svg>
