<svg xmlns="http://www.w3.org/2000/svg" width="33.141" height="41.572" viewBox="0 0 33.141 41.572">
    <defs>
        <style>
            .cls-1{fill:#fff}
        </style>
    </defs>
    <path id="hold" d="M24.007 7.285v11.292a1.093 1.093 0 0 1-1.093 1.093 1.093 1.093 0 0 1-1.093-1.093V2.185A2.185 2.185 0 0 0 19.636 0a2.185 2.185 0 0 0-2.186 2.185v16.392a1.093 1.093 0 0 1-1.093 1.093 1.093 1.093 0 0 1-1.093-1.093V5.464a1.821 1.821 0 0 0-1.821-1.821 1.821 1.821 0 0 0-1.821 1.821v14.57a1.093 1.093 0 0 1-1.093 1.093 1.093 1.093 0 0 1-1.093-1.093v-9.107a1.821 1.821 0 0 0-1.82-1.821h-.008a1.821 1.821 0 0 0-1.821 1.821V30.69c.609 8.8 5.435 10.882 12.246 10.882a12.557 12.557 0 0 0 11.056-6.084c.846-1.365 5.969-9.343 6.409-10.176A9.666 9.666 0 0 1 37.71 22.4a4.919 4.919 0 0 0 1.152-1.533c.079-.147.31-1.928-1.013-1.922a6.565 6.565 0 0 0-3.409 1.131 11.937 11.937 0 0 0-3.632 4.024 2.219 2.219 0 0 1-1.845 1.157c-.729.017-.541-.341-.586-1.847V7.285A2.185 2.185 0 0 0 26.192 5.1a2.185 2.185 0 0 0-2.185 2.185z" class="cls-1" transform="translate(-5.787)"/>
</svg>
