<svg xmlns="http://www.w3.org/2000/svg" xmlns:xlink="http://www.w3.org/1999/xlink" width="20" height="20" viewBox="0 0 20 20"><defs><style>.a{clip-path:url(#b);}.b,.d{fill:#fff;stroke-width:0.1px;}.b{stroke:#00a8e1;}.c{fill:#009edd;}.d{stroke:#009edd;}.e,.g{stroke:none;}.f{fill:none;}.g{fill:#00a8e1;}</style><clipPath id="b"><rect width="20" height="20"/></clipPath></defs><g id="a" class="a"><g class="b" transform="translate(5 3)"><rect class="e" width="1" height="9"/><rect class="f" x="0.05" y="0.05" width="0.9" height="8.9"/></g><g class="b" transform="translate(15 3)"><rect class="e" width="1" height="9"/><rect class="f" x="0.05" y="0.05" width="0.9" height="8.9"/></g><g class="c" transform="translate(3 12)"><path class="e" d="M 14.94999980926514 6.949999809265137 L 11.92434024810791 6.949999809265137 L 9.118670463562012 6.949999809265137 L 6.043000221252441 6.949999809265137 L 3.237329959869385 6.949999809265137 L 0.05000000074505806 6.949999809265137 L 0.05000000074505806 0.05000000074505806 L 14.94999980926514 0.05000000074505806 L 14.94999980926514 6.949999809265137 Z"/><path class="g" d="M 14.89999961853027 6.900000095367432 L 14.89999961853027 0.1000000014901161 L 0.1000000014901161 0.1000000014901161 L 0.1000000014901161 6.900000095367432 L 3.237329959869385 6.900000095367432 L 6.043000221252441 6.900000095367432 L 9.118670463562012 6.900000095367432 L 11.92434024810791 6.900000095367432 L 14.89999961853027 6.900000095367432 M 15 7 L 11.92434024810791 7 L 9.118670463562012 7 L 6.043000221252441 7 L 3.237329959869385 7 L -8.881784197001252e-16 7 L -8.881784197001252e-16 -4.440892098500626e-16 L 15 -4.440892098500626e-16 L 15 7 Z"/></g><g class="b" transform="translate(2 11)"><rect class="e" width="17" height="2" rx="1"/><rect class="f" x="0.05" y="0.05" width="16.9" height="1.9" rx="0.95"/></g><g class="c" transform="translate(8159 896)"><path class="e" d="M -8141.263671875 -890.051025390625 C -8141.798828125 -890.051025390625 -8142.27734375 -890.4088745117188 -8142.427734375 -890.9212036132812 L -8142.4755859375 -891.0846557617188 L -8142.5234375 -890.9212036132812 C -8142.673828125 -890.4088745117188 -8143.15234375 -890.051025390625 -8143.6875 -890.051025390625 C -8144.21240234375 -890.051025390625 -8144.67578125 -890.385498046875 -8144.83984375 -890.88330078125 L -8144.88720703125 -891.0272827148438 L -8144.9345703125 -890.88330078125 C -8145.0986328125 -890.385498046875 -8145.56201171875 -890.051025390625 -8146.0869140625 -890.051025390625 C -8146.61376953125 -890.051025390625 -8147.07763671875 -890.3865966796875 -8147.24169921875 -890.8860473632812 L -8147.28857421875 -891.0289306640625 L -8147.33642578125 -890.886474609375 C -8147.5048828125 -890.3867797851562 -8147.97265625 -890.051025390625 -8148.50048828125 -890.051025390625 C -8149.02880859375 -890.051025390625 -8149.49609375 -890.3877563476562 -8149.6630859375 -890.8888549804688 L -8149.7109375 -891.032958984375 L -8149.7578125 -890.8884887695312 C -8149.9208984375 -890.3875732421875 -8150.384765625 -890.051025390625 -8150.912109375 -890.051025390625 C -8151.43701171875 -890.051025390625 -8151.89990234375 -890.385498046875 -8152.06396484375 -890.88330078125 L -8152.111328125 -891.027099609375 L -8152.15869140625 -890.88330078125 C -8152.3232421875 -890.385498046875 -8152.78662109375 -890.051025390625 -8153.31103515625 -890.051025390625 C -8153.84716796875 -890.051025390625 -8154.326171875 -890.4102172851562 -8154.47607421875 -890.9244995117188 L -8154.52392578125 -891.089599609375 L -8154.57177734375 -890.9244995117188 C -8154.7216796875 -890.4102172851562 -8155.20068359375 -890.051025390625 -8155.73681640625 -890.051025390625 C -8156.40576171875 -890.051025390625 -8156.9501953125 -890.59521484375 -8156.9501953125 -891.26416015625 L -8156.9501953125 -894.9501953125 L -8154.57421875 -894.9501953125 L -8152.1748046875 -894.9501953125 L -8149.77587890625 -894.9501953125 L -8147.22314453125 -894.9501953125 L -8144.82373046875 -894.9501953125 L -8142.42431640625 -894.9501953125 L -8140.05029296875 -894.9501953125 L -8140.05029296875 -891.26416015625 C -8140.05029296875 -890.59521484375 -8140.5947265625 -890.051025390625 -8141.263671875 -890.051025390625 Z"/><path class="g" d="M -8141.263671875 -890.1010131835938 C -8140.6220703125 -890.1010131835938 -8140.1005859375 -890.622802734375 -8140.1005859375 -891.26416015625 L -8140.1005859375 -894.9002075195312 L -8142.42431640625 -894.9002075195312 L -8144.82373046875 -894.9002075195312 L -8147.22314453125 -894.9002075195312 L -8149.77587890625 -894.9002075195312 L -8152.1748046875 -894.9002075195312 L -8154.57421875 -894.9002075195312 L -8156.89990234375 -894.9002075195312 L -8156.89990234375 -891.26416015625 C -8156.89990234375 -890.622802734375 -8156.37841796875 -890.1010131835938 -8155.73681640625 -890.1010131835938 C -8155.22265625 -890.1010131835938 -8154.76318359375 -890.4453735351562 -8154.6201171875 -890.9384155273438 L -8154.52392578125 -891.2687377929688 L -8154.427734375 -890.9384155273438 C -8154.28466796875 -890.4453735351562 -8153.8251953125 -890.1010131835938 -8153.31103515625 -890.1010131835938 C -8152.80810546875 -890.1010131835938 -8152.3642578125 -890.4216918945312 -8152.2060546875 -890.8989868164062 L -8152.111328125 -891.1865844726562 L -8152.0166015625 -890.89892578125 C -8151.85888671875 -890.4216918945312 -8151.4150390625 -890.1010131835938 -8150.912109375 -890.1010131835938 C -8150.40625 -890.1010131835938 -8149.96142578125 -890.4237060546875 -8149.8056640625 -890.9039306640625 L -8149.7119140625 -891.1928100585938 L -8149.61572265625 -890.9046630859375 C -8149.455078125 -890.4240112304688 -8149.00732421875 -890.1010131835938 -8148.50048828125 -890.1010131835938 C -8147.994140625 -890.1010131835938 -8147.54541015625 -890.423095703125 -8147.3837890625 -890.9024658203125 L -8147.28759765625 -891.1874389648438 L -8147.19384765625 -890.901611328125 C -8147.037109375 -890.4227905273438 -8146.59228515625 -890.1010131835938 -8146.0869140625 -890.1010131835938 C -8145.58349609375 -890.1010131835938 -8145.1396484375 -890.4216918945312 -8144.982421875 -890.89892578125 L -8144.88720703125 -891.1869506835938 L -8144.79248046875 -890.89892578125 C -8144.634765625 -890.4216918945312 -8144.19091796875 -890.1010131835938 -8143.6875 -890.1010131835938 C -8143.1748046875 -890.1010131835938 -8142.7158203125 -890.444091796875 -8142.57177734375 -890.9352416992188 L -8142.4755859375 -891.2621459960938 L -8142.3798828125 -890.9352416992188 C -8142.2353515625 -890.444091796875 -8141.7763671875 -890.1010131835938 -8141.263671875 -890.1010131835938 M -8141.263671875 -890.0010375976562 C -8141.837890625 -890.0010375976562 -8142.32177734375 -890.3831176757812 -8142.4755859375 -890.9071044921875 C -8142.62939453125 -890.3831176757812 -8143.11328125 -890.0010375976562 -8143.6875 -890.0010375976562 C -8144.2470703125 -890.0010375976562 -8144.72119140625 -890.3640747070312 -8144.88720703125 -890.8676147460938 C -8145.05322265625 -890.3640747070312 -8145.52734375 -890.0010375976562 -8146.0869140625 -890.0010375976562 C -8146.6474609375 -890.0010375976562 -8147.12353515625 -890.365478515625 -8147.2890625 -890.8704833984375 C -8147.45947265625 -890.365234375 -8147.93798828125 -890.0010375976562 -8148.50048828125 -890.0010375976562 C -8149.0634765625 -890.0010375976562 -8149.54150390625 -890.366455078125 -8149.71044921875 -890.873046875 C -8149.875 -890.36669921875 -8150.3505859375 -890.0010375976562 -8150.912109375 -890.0010375976562 C -8151.47119140625 -890.0010375976562 -8151.9453125 -890.3640747070312 -8152.111328125 -890.8676147460938 C -8152.27783203125 -890.3640747070312 -8152.75146484375 -890.0010375976562 -8153.31103515625 -890.0010375976562 C -8153.88623046875 -890.0010375976562 -8154.37109375 -890.3848266601562 -8154.52392578125 -890.9105224609375 C -8154.6767578125 -890.3848266601562 -8155.16162109375 -890.0010375976562 -8155.73681640625 -890.0010375976562 C -8156.43505859375 -890.0010375976562 -8157 -890.5660400390625 -8157 -891.26416015625 L -8157 -895.0001831054688 L -8154.57421875 -895.0001831054688 L -8152.1748046875 -895.0001831054688 L -8149.77587890625 -895.0001831054688 L -8147.22314453125 -895.0001831054688 L -8144.82373046875 -895.0001831054688 L -8142.42431640625 -895.0001831054688 L -8140.00048828125 -895.0001831054688 L -8140.00048828125 -891.26416015625 C -8140.00048828125 -890.5660400390625 -8140.56591796875 -890.0010375976562 -8141.263671875 -890.0010375976562 Z"/></g><g class="d" transform="translate(2 18)"><rect class="e" width="17" height="1" rx="0.5"/><rect class="f" x="0.05" y="0.05" width="16.9" height="0.9" rx="0.45"/></g></g></svg>