<svg xmlns="http://www.w3.org/2000/svg" width="30" height="30" viewBox="0 0 30 30">
    <defs>
        <style>
            .cls-1{fill:none}.cls-2{fill:#00a8e1;fill-rule:evenodd}
        </style>
    </defs>
    <g id="ic_person" transform="translate(-400 -539)">
        <path id="Base" d="M0 0h30v30H0z" class="cls-1" transform="translate(400 539)"/>
        <path id="Icon" d="M215-15a4 4 0 0 0 4-4 4 4 0 0 0-4-4 4 4 0 0 0-4 4 4 4 0 0 0 4 4zm0 2c-2.67 0-8 1.34-8 4v2h16v-2c0-2.66-5.33-4-8-4z" class="cls-2" transform="translate(200 569)"/>
    </g>
</svg>
