<svg xmlns="http://www.w3.org/2000/svg" width="149.518" height="149.518" viewBox="0 0 149.518 149.518">
    <defs>
        <style>
            .cls-1{fill:#707070}
        </style>
    </defs>
    <g id="auto-focus" transform="translate(-10 -10)">
        <path id="Path_6049" d="M11.823 45a1.823 1.823 0 0 0 1.823-1.823V17.9a4.259 4.259 0 0 1 4.254-4.253h27.389a1.823 1.823 0 0 0 0-3.647H17.9a7.91 7.91 0 0 0-7.9 7.9v25.28A1.823 1.823 0 0 0 11.823 45z" class="cls-1" data-name="Path 6049"/>
        <path id="Path_6050" d="M419.736 382.025a1.823 1.823 0 0 0-1.823 1.823v26.735a4.259 4.259 0 0 1-4.255 4.255h-25.393a1.823 1.823 0 1 0 0 3.647h25.393a7.91 7.91 0 0 0 7.9-7.9v-26.737a1.823 1.823 0 0 0-1.823-1.823z" class="cls-1" data-name="Path 6050" transform="translate(-262.042 -258.968)"/>
        <path id="Path_6051" d="M389.945 13.647h24.883a4.259 4.259 0 0 1 4.255 4.255v24a1.823 1.823 0 0 0 3.647 0v-24a7.91 7.91 0 0 0-7.9-7.9h-24.885a1.823 1.823 0 0 0 0 3.647z" class="cls-1" data-name="Path 6051" transform="translate(-263.212)"/>
        <path id="Path_6052" d="M17.9 426.088h23.56a1.823 1.823 0 0 0 0-3.647H17.9a4.259 4.259 0 0 1-4.255-4.255V394.77a1.823 1.823 0 1 0-3.647 0v23.416a7.91 7.91 0 0 0 7.9 7.9z" class="cls-1" data-name="Path 6052" transform="translate(0 -266.57)"/>
    </g>
</svg>
